<mxfile host="65bd71144e" modified="2020-11-25T10:55:39.445Z" agent="5.0 (Windows NT 10.0; Win64; x64) AppleWebKit/537.36 (KHTML, like Gecko) Code/1.51.1 Chrome/83.0.4103.122 Electron/9.3.3 Safari/537.36" etag="l5DWEQtPN4izRXPtcVUg" version="13.6.5">
    <diagram id="yCI9e9Nfu7zDyY76apde" name="第 1 页">
        <mxGraphModel dx="1260" dy="863" grid="1" gridSize="10" guides="1" tooltips="1" connect="1" arrows="1" fold="1" page="1" pageScale="1" pageWidth="827" pageHeight="1169" math="0" shadow="0">
            <root>
                <mxCell id="0"/>
                <mxCell id="1" parent="0"/>
                <mxCell id="qopmfsza2XrJsMXSQic5-3" value="/" style="rounded=0;whiteSpace=wrap;html=1;fillColor=#6a00ff;strokeColor=#3700CC;fontColor=#ffffff;" parent="1" vertex="1">
                    <mxGeometry x="100" y="419.5" width="50" height="20" as="geometry"/>
                </mxCell>
                <mxCell id="qopmfsza2XrJsMXSQic5-4" value="boot" style="rounded=0;whiteSpace=wrap;html=1;" parent="1" vertex="1">
                    <mxGeometry x="200" y="165" width="50" height="20" as="geometry"/>
                </mxCell>
                <mxCell id="qopmfsza2XrJsMXSQic5-7" value="dev" style="rounded=0;whiteSpace=wrap;html=1;" parent="1" vertex="1">
                    <mxGeometry x="200" y="195" width="50" height="20" as="geometry"/>
                </mxCell>
                <mxCell id="qopmfsza2XrJsMXSQic5-9" value="etc" style="rounded=0;whiteSpace=wrap;html=1;" parent="1" vertex="1">
                    <mxGeometry x="200" y="225" width="50" height="20" as="geometry"/>
                </mxCell>
                <mxCell id="qopmfsza2XrJsMXSQic5-10" value="bin" style="rounded=0;whiteSpace=wrap;html=1;fillColor=#60a917;strokeColor=#2D7600;fontColor=#ffffff;" parent="1" vertex="1">
                    <mxGeometry x="200" y="255" width="50" height="20" as="geometry"/>
                </mxCell>
                <mxCell id="qopmfsza2XrJsMXSQic5-11" value="home" style="rounded=0;whiteSpace=wrap;html=1;" parent="1" vertex="1">
                    <mxGeometry x="200" y="285" width="50" height="20" as="geometry"/>
                </mxCell>
                <mxCell id="qopmfsza2XrJsMXSQic5-12" value="lib" style="rounded=0;whiteSpace=wrap;html=1;fillColor=#60a917;strokeColor=#2D7600;fontColor=#ffffff;" parent="1" vertex="1">
                    <mxGeometry x="200" y="315" width="50" height="20" as="geometry"/>
                </mxCell>
                <mxCell id="qopmfsza2XrJsMXSQic5-13" value="media" style="rounded=0;whiteSpace=wrap;html=1;" parent="1" vertex="1">
                    <mxGeometry x="200" y="345" width="50" height="20" as="geometry"/>
                </mxCell>
                <mxCell id="qopmfsza2XrJsMXSQic5-14" value="mnt" style="rounded=0;whiteSpace=wrap;html=1;" parent="1" vertex="1">
                    <mxGeometry x="200" y="375" width="50" height="20" as="geometry"/>
                </mxCell>
                <mxCell id="qopmfsza2XrJsMXSQic5-15" value="opt" style="rounded=0;whiteSpace=wrap;html=1;" parent="1" vertex="1">
                    <mxGeometry x="200" y="405" width="50" height="20" as="geometry"/>
                </mxCell>
                <mxCell id="qopmfsza2XrJsMXSQic5-16" value="proc" style="rounded=0;whiteSpace=wrap;html=1;" parent="1" vertex="1">
                    <mxGeometry x="200" y="434" width="50" height="20" as="geometry"/>
                </mxCell>
                <mxCell id="qopmfsza2XrJsMXSQic5-17" value="root" style="rounded=0;whiteSpace=wrap;html=1;" parent="1" vertex="1">
                    <mxGeometry x="200" y="464" width="50" height="20" as="geometry"/>
                </mxCell>
                <mxCell id="qopmfsza2XrJsMXSQic5-18" value="sbin" style="rounded=0;whiteSpace=wrap;html=1;fillColor=#60a917;strokeColor=#2D7600;fontColor=#ffffff;" parent="1" vertex="1">
                    <mxGeometry x="200" y="494" width="50" height="20" as="geometry"/>
                </mxCell>
                <mxCell id="qopmfsza2XrJsMXSQic5-19" value="srv" style="rounded=0;whiteSpace=wrap;html=1;" parent="1" vertex="1">
                    <mxGeometry x="200" y="524" width="50" height="20" as="geometry"/>
                </mxCell>
                <mxCell id="qopmfsza2XrJsMXSQic5-20" value="sys" style="rounded=0;whiteSpace=wrap;html=1;" parent="1" vertex="1">
                    <mxGeometry x="200" y="554" width="50" height="20" as="geometry"/>
                </mxCell>
                <mxCell id="qopmfsza2XrJsMXSQic5-21" value="tmp" style="rounded=0;whiteSpace=wrap;html=1;" parent="1" vertex="1">
                    <mxGeometry x="200" y="584" width="50" height="20" as="geometry"/>
                </mxCell>
                <mxCell id="qopmfsza2XrJsMXSQic5-22" value="run" style="rounded=0;whiteSpace=wrap;html=1;" parent="1" vertex="1">
                    <mxGeometry x="200" y="614" width="50" height="20" as="geometry"/>
                </mxCell>
                <mxCell id="qopmfsza2XrJsMXSQic5-23" value="usr" style="rounded=0;whiteSpace=wrap;html=1;fillColor=#6a00ff;strokeColor=#3700CC;fontColor=#ffffff;" parent="1" vertex="1">
                    <mxGeometry x="200" y="644" width="50" height="20" as="geometry"/>
                </mxCell>
                <mxCell id="qopmfsza2XrJsMXSQic5-24" value="var" style="rounded=0;whiteSpace=wrap;html=1;fillColor=#6a00ff;strokeColor=#3700CC;fontColor=#ffffff;" parent="1" vertex="1">
                    <mxGeometry x="200" y="674" width="50" height="20" as="geometry"/>
                </mxCell>
                <mxCell id="qopmfsza2XrJsMXSQic5-25" value="cron" style="rounded=0;whiteSpace=wrap;html=1;" parent="1" vertex="1">
                    <mxGeometry x="515" y="714" width="50" height="20" as="geometry"/>
                </mxCell>
                <mxCell id="qopmfsza2XrJsMXSQic5-26" value="mail" style="rounded=0;whiteSpace=wrap;html=1;" parent="1" vertex="1">
                    <mxGeometry x="515" y="744" width="50" height="20" as="geometry"/>
                </mxCell>
                <mxCell id="qopmfsza2XrJsMXSQic5-27" value="postfix" style="rounded=0;whiteSpace=wrap;html=1;" parent="1" vertex="1">
                    <mxGeometry x="515" y="774" width="50" height="20" as="geometry"/>
                </mxCell>
                <mxCell id="qopmfsza2XrJsMXSQic5-28" value="lpd" style="rounded=0;whiteSpace=wrap;html=1;" parent="1" vertex="1">
                    <mxGeometry x="515" y="804" width="50" height="20" as="geometry"/>
                </mxCell>
                <mxCell id="qopmfsza2XrJsMXSQic5-29" value="local" style="rounded=0;whiteSpace=wrap;html=1;" parent="1" vertex="1">
                    <mxGeometry x="380" y="554" width="50" height="20" as="geometry"/>
                </mxCell>
                <mxCell id="qopmfsza2XrJsMXSQic5-30" value="include" style="rounded=0;whiteSpace=wrap;html=1;" parent="1" vertex="1">
                    <mxGeometry x="380" y="464" width="50" height="20" as="geometry"/>
                </mxCell>
                <mxCell id="qopmfsza2XrJsMXSQic5-31" value="lib" style="rounded=0;whiteSpace=wrap;html=1;" parent="1" vertex="1">
                    <mxGeometry x="380" y="494" width="50" height="20" as="geometry"/>
                </mxCell>
                <mxCell id="qopmfsza2XrJsMXSQic5-32" value="src" style="rounded=0;whiteSpace=wrap;html=1;" parent="1" vertex="1">
                    <mxGeometry x="380" y="524" width="50" height="20" as="geometry"/>
                </mxCell>
                <mxCell id="qopmfsza2XrJsMXSQic5-33" value="bin" style="rounded=0;whiteSpace=wrap;html=1;" parent="1" vertex="1">
                    <mxGeometry x="380" y="434" width="50" height="20" as="geometry"/>
                </mxCell>
                <mxCell id="qopmfsza2XrJsMXSQic5-34" value="sbin" style="rounded=0;whiteSpace=wrap;html=1;" parent="1" vertex="1">
                    <mxGeometry x="380" y="584" width="50" height="20" as="geometry"/>
                </mxCell>
                <mxCell id="qopmfsza2XrJsMXSQic5-35" value="share" style="rounded=0;whiteSpace=wrap;html=1;" parent="1" vertex="1">
                    <mxGeometry x="380" y="614" width="50" height="20" as="geometry"/>
                </mxCell>
                <mxCell id="qopmfsza2XrJsMXSQic5-36" value="include" style="rounded=0;whiteSpace=wrap;html=1;" parent="1" vertex="1">
                    <mxGeometry x="516" y="455" width="50" height="20" as="geometry"/>
                </mxCell>
                <mxCell id="qopmfsza2XrJsMXSQic5-37" value="cache" style="rounded=0;whiteSpace=wrap;html=1;" parent="1" vertex="1">
                    <mxGeometry x="380" y="644" width="50" height="20" as="geometry"/>
                </mxCell>
                <mxCell id="qopmfsza2XrJsMXSQic5-38" value="lib" style="rounded=0;whiteSpace=wrap;html=1;" parent="1" vertex="1">
                    <mxGeometry x="380" y="674" width="50" height="20" as="geometry"/>
                </mxCell>
                <mxCell id="qopmfsza2XrJsMXSQic5-39" value="lock" style="rounded=0;whiteSpace=wrap;html=1;" parent="1" vertex="1">
                    <mxGeometry x="380" y="704" width="50" height="20" as="geometry"/>
                </mxCell>
                <mxCell id="qopmfsza2XrJsMXSQic5-40" value="log" style="rounded=0;whiteSpace=wrap;html=1;" parent="1" vertex="1">
                    <mxGeometry x="380" y="734" width="50" height="20" as="geometry"/>
                </mxCell>
                <mxCell id="qopmfsza2XrJsMXSQic5-86" style="edgeStyle=orthogonalEdgeStyle;rounded=0;orthogonalLoop=1;jettySize=auto;html=1;entryX=0.081;entryY=0.555;entryDx=0;entryDy=0;entryPerimeter=0;" parent="1" source="qopmfsza2XrJsMXSQic5-41" target="qopmfsza2XrJsMXSQic5-77" edge="1">
                    <mxGeometry relative="1" as="geometry"/>
                </mxCell>
                <mxCell id="qopmfsza2XrJsMXSQic5-41" value="spool" style="rounded=0;whiteSpace=wrap;html=1;" parent="1" vertex="1">
                    <mxGeometry x="380" y="764" width="50" height="20" as="geometry"/>
                </mxCell>
                <mxCell id="qopmfsza2XrJsMXSQic5-42" value="run" style="rounded=0;whiteSpace=wrap;html=1;fillColor=#60a917;strokeColor=#2D7600;fontColor=#ffffff;" parent="1" vertex="1">
                    <mxGeometry x="380" y="794" width="50" height="20" as="geometry"/>
                </mxCell>
                <mxCell id="qopmfsza2XrJsMXSQic5-43" value="bin" style="rounded=0;whiteSpace=wrap;html=1;" parent="1" vertex="1">
                    <mxGeometry x="516" y="395" width="50" height="20" as="geometry"/>
                </mxCell>
                <mxCell id="qopmfsza2XrJsMXSQic5-44" value="etc" style="rounded=0;whiteSpace=wrap;html=1;" parent="1" vertex="1">
                    <mxGeometry x="516" y="425" width="50" height="20" as="geometry"/>
                </mxCell>
                <mxCell id="qopmfsza2XrJsMXSQic5-45" value="src" style="rounded=0;whiteSpace=wrap;html=1;" parent="1" vertex="1">
                    <mxGeometry x="516" y="485" width="50" height="20" as="geometry"/>
                </mxCell>
                <mxCell id="qopmfsza2XrJsMXSQic5-46" value="lib" style="rounded=0;whiteSpace=wrap;html=1;" parent="1" vertex="1">
                    <mxGeometry x="516" y="515" width="50" height="20" as="geometry"/>
                </mxCell>
                <mxCell id="qopmfsza2XrJsMXSQic5-47" value="share" style="rounded=0;whiteSpace=wrap;html=1;" parent="1" vertex="1">
                    <mxGeometry x="516" y="545" width="50" height="20" as="geometry"/>
                </mxCell>
                <mxCell id="qopmfsza2XrJsMXSQic5-48" value="" style="strokeWidth=2;html=1;shape=mxgraph.flowchart.annotation_2;align=left;labelPosition=right;pointerEvents=1;" parent="1" vertex="1">
                    <mxGeometry x="150" y="175" width="50" height="509" as="geometry"/>
                </mxCell>
                <mxCell id="qopmfsza2XrJsMXSQic5-59" value="" style="endArrow=none;html=1;" parent="1" edge="1">
                    <mxGeometry width="50" height="50" relative="1" as="geometry">
                        <mxPoint x="175" y="385" as="sourcePoint"/>
                        <mxPoint x="200" y="384.66" as="targetPoint"/>
                        <Array as="points">
                            <mxPoint x="200" y="384.66"/>
                        </Array>
                    </mxGeometry>
                </mxCell>
                <mxCell id="qopmfsza2XrJsMXSQic5-61" value="" style="endArrow=none;html=1;" parent="1" edge="1">
                    <mxGeometry width="50" height="50" relative="1" as="geometry">
                        <mxPoint x="175" y="414.34000000000003" as="sourcePoint"/>
                        <mxPoint x="200" y="414.0000000000001" as="targetPoint"/>
                        <Array as="points">
                            <mxPoint x="200" y="414.0000000000001"/>
                        </Array>
                    </mxGeometry>
                </mxCell>
                <mxCell id="qopmfsza2XrJsMXSQic5-72" value="" style="strokeWidth=2;html=1;shape=mxgraph.flowchart.annotation_1;align=left;pointerEvents=1;" parent="1" vertex="1">
                    <mxGeometry x="354" y="654" width="26" height="150" as="geometry"/>
                </mxCell>
                <mxCell id="qopmfsza2XrJsMXSQic5-76" value="" style="strokeWidth=2;html=1;shape=mxgraph.flowchart.annotation_1;align=left;pointerEvents=1;" parent="1" vertex="1">
                    <mxGeometry x="354" y="440" width="26" height="189" as="geometry"/>
                </mxCell>
                <mxCell id="qopmfsza2XrJsMXSQic5-77" value="" style="strokeWidth=2;html=1;shape=mxgraph.flowchart.annotation_1;align=left;pointerEvents=1;" parent="1" vertex="1">
                    <mxGeometry x="490" y="724" width="25" height="90" as="geometry"/>
                </mxCell>
                <mxCell id="qopmfsza2XrJsMXSQic5-78" value="" style="strokeWidth=2;html=1;shape=mxgraph.flowchart.annotation_1;align=left;pointerEvents=1;" parent="1" vertex="1">
                    <mxGeometry x="490" y="405" width="26" height="150" as="geometry"/>
                </mxCell>
                <mxCell id="qopmfsza2XrJsMXSQic5-82" value="" style="edgeStyle=elbowEdgeStyle;elbow=horizontal;endArrow=classic;html=1;exitX=1;exitY=0.5;exitDx=0;exitDy=0;" parent="1" source="qopmfsza2XrJsMXSQic5-23" edge="1">
                    <mxGeometry width="50" height="50" relative="1" as="geometry">
                        <mxPoint x="300" y="624" as="sourcePoint"/>
                        <mxPoint x="350" y="524" as="targetPoint"/>
                        <Array as="points">
                            <mxPoint x="330" y="570"/>
                        </Array>
                    </mxGeometry>
                </mxCell>
                <mxCell id="qopmfsza2XrJsMXSQic5-83" value="" style="edgeStyle=elbowEdgeStyle;elbow=horizontal;endArrow=classic;html=1;exitX=1;exitY=0.5;exitDx=0;exitDy=0;entryX=0;entryY=0.5;entryDx=0;entryDy=0;entryPerimeter=0;" parent="1" source="qopmfsza2XrJsMXSQic5-24" target="qopmfsza2XrJsMXSQic5-72" edge="1">
                    <mxGeometry width="50" height="50" relative="1" as="geometry">
                        <mxPoint x="300" y="714" as="sourcePoint"/>
                        <mxPoint x="350" y="664" as="targetPoint"/>
                        <Array as="points">
                            <mxPoint x="340" y="710"/>
                        </Array>
                    </mxGeometry>
                </mxCell>
                <mxCell id="qopmfsza2XrJsMXSQic5-84" value="" style="edgeStyle=elbowEdgeStyle;elbow=horizontal;endArrow=classic;html=1;exitX=1;exitY=0.5;exitDx=0;exitDy=0;entryX=0;entryY=0.433;entryDx=0;entryDy=0;entryPerimeter=0;" parent="1" source="qopmfsza2XrJsMXSQic5-29" target="qopmfsza2XrJsMXSQic5-78" edge="1">
                    <mxGeometry width="50" height="50" relative="1" as="geometry">
                        <mxPoint x="440" y="564" as="sourcePoint"/>
                        <mxPoint x="490" y="514" as="targetPoint"/>
                    </mxGeometry>
                </mxCell>
                <mxCell id="qopmfsza2XrJsMXSQic5-87" value="" style="endArrow=none;html=1;" parent="1" edge="1">
                    <mxGeometry width="50" height="50" relative="1" as="geometry">
                        <mxPoint x="175" y="654.34" as="sourcePoint"/>
                        <mxPoint x="200" y="654.0000000000001" as="targetPoint"/>
                        <Array as="points">
                            <mxPoint x="200" y="654.0000000000001"/>
                        </Array>
                    </mxGeometry>
                </mxCell>
                <mxCell id="qopmfsza2XrJsMXSQic5-89" value="" style="endArrow=none;html=1;" parent="1" edge="1">
                    <mxGeometry width="50" height="50" relative="1" as="geometry">
                        <mxPoint x="175" y="624.0000000000001" as="sourcePoint"/>
                        <mxPoint x="200" y="623.66" as="targetPoint"/>
                        <Array as="points">
                            <mxPoint x="200" y="623.6600000000001"/>
                        </Array>
                    </mxGeometry>
                </mxCell>
                <mxCell id="qopmfsza2XrJsMXSQic5-90" value="" style="endArrow=none;html=1;" parent="1" edge="1">
                    <mxGeometry width="50" height="50" relative="1" as="geometry">
                        <mxPoint x="175" y="594.0000000000001" as="sourcePoint"/>
                        <mxPoint x="200" y="593.66" as="targetPoint"/>
                        <Array as="points">
                            <mxPoint x="200" y="593.6600000000001"/>
                        </Array>
                    </mxGeometry>
                </mxCell>
                <mxCell id="qopmfsza2XrJsMXSQic5-91" value="" style="endArrow=none;html=1;" parent="1" edge="1">
                    <mxGeometry width="50" height="50" relative="1" as="geometry">
                        <mxPoint x="175" y="564.0000000000001" as="sourcePoint"/>
                        <mxPoint x="200" y="563.66" as="targetPoint"/>
                        <Array as="points">
                            <mxPoint x="200" y="563.6600000000001"/>
                        </Array>
                    </mxGeometry>
                </mxCell>
                <mxCell id="qopmfsza2XrJsMXSQic5-92" value="" style="endArrow=none;html=1;" parent="1" edge="1">
                    <mxGeometry width="50" height="50" relative="1" as="geometry">
                        <mxPoint x="175" y="534.0000000000001" as="sourcePoint"/>
                        <mxPoint x="200" y="533.66" as="targetPoint"/>
                        <Array as="points">
                            <mxPoint x="200" y="533.6600000000001"/>
                        </Array>
                    </mxGeometry>
                </mxCell>
                <mxCell id="qopmfsza2XrJsMXSQic5-93" value="" style="endArrow=none;html=1;" parent="1" edge="1">
                    <mxGeometry width="50" height="50" relative="1" as="geometry">
                        <mxPoint x="175" y="504.0000000000001" as="sourcePoint"/>
                        <mxPoint x="200" y="503.65999999999997" as="targetPoint"/>
                        <Array as="points">
                            <mxPoint x="200" y="503.6600000000001"/>
                        </Array>
                    </mxGeometry>
                </mxCell>
                <mxCell id="qopmfsza2XrJsMXSQic5-94" value="" style="endArrow=none;html=1;" parent="1" edge="1">
                    <mxGeometry width="50" height="50" relative="1" as="geometry">
                        <mxPoint x="175" y="355.00000000000017" as="sourcePoint"/>
                        <mxPoint x="200" y="354.66" as="targetPoint"/>
                        <Array as="points">
                            <mxPoint x="200" y="354.66000000000014"/>
                        </Array>
                    </mxGeometry>
                </mxCell>
                <mxCell id="qopmfsza2XrJsMXSQic5-95" value="" style="endArrow=none;html=1;" parent="1" edge="1">
                    <mxGeometry width="50" height="50" relative="1" as="geometry">
                        <mxPoint x="175" y="444.0000000000001" as="sourcePoint"/>
                        <mxPoint x="200" y="443.65999999999997" as="targetPoint"/>
                        <Array as="points">
                            <mxPoint x="200" y="443.6600000000001"/>
                        </Array>
                    </mxGeometry>
                </mxCell>
                <mxCell id="qopmfsza2XrJsMXSQic5-96" value="" style="endArrow=none;html=1;" parent="1" edge="1">
                    <mxGeometry width="50" height="50" relative="1" as="geometry">
                        <mxPoint x="175" y="474.0000000000001" as="sourcePoint"/>
                        <mxPoint x="200" y="473.65999999999997" as="targetPoint"/>
                        <Array as="points">
                            <mxPoint x="200" y="473.6600000000001"/>
                        </Array>
                    </mxGeometry>
                </mxCell>
                <mxCell id="qopmfsza2XrJsMXSQic5-97" value="" style="endArrow=none;html=1;" parent="1" edge="1">
                    <mxGeometry width="50" height="50" relative="1" as="geometry">
                        <mxPoint x="175" y="325.0000000000001" as="sourcePoint"/>
                        <mxPoint x="200" y="324.65999999999997" as="targetPoint"/>
                        <Array as="points">
                            <mxPoint x="200" y="324.6600000000002"/>
                        </Array>
                    </mxGeometry>
                </mxCell>
                <mxCell id="qopmfsza2XrJsMXSQic5-98" value="" style="endArrow=none;html=1;" parent="1" edge="1">
                    <mxGeometry width="50" height="50" relative="1" as="geometry">
                        <mxPoint x="175" y="295.00000000000017" as="sourcePoint"/>
                        <mxPoint x="200" y="294.66" as="targetPoint"/>
                        <Array as="points">
                            <mxPoint x="200" y="294.66000000000014"/>
                        </Array>
                    </mxGeometry>
                </mxCell>
                <mxCell id="qopmfsza2XrJsMXSQic5-99" value="" style="endArrow=none;html=1;" parent="1" edge="1">
                    <mxGeometry width="50" height="50" relative="1" as="geometry">
                        <mxPoint x="175" y="265.00000000000017" as="sourcePoint"/>
                        <mxPoint x="200" y="264.66" as="targetPoint"/>
                        <Array as="points">
                            <mxPoint x="200" y="264.66000000000014"/>
                        </Array>
                    </mxGeometry>
                </mxCell>
                <mxCell id="qopmfsza2XrJsMXSQic5-100" value="" style="endArrow=none;html=1;" parent="1" edge="1">
                    <mxGeometry width="50" height="50" relative="1" as="geometry">
                        <mxPoint x="175" y="235.00000000000017" as="sourcePoint"/>
                        <mxPoint x="200" y="234.66000000000003" as="targetPoint"/>
                        <Array as="points">
                            <mxPoint x="200" y="234.66000000000014"/>
                        </Array>
                    </mxGeometry>
                </mxCell>
                <mxCell id="qopmfsza2XrJsMXSQic5-101" value="" style="endArrow=none;html=1;" parent="1" edge="1">
                    <mxGeometry width="50" height="50" relative="1" as="geometry">
                        <mxPoint x="175" y="205.0000000000001" as="sourcePoint"/>
                        <mxPoint x="200" y="204.65999999999997" as="targetPoint"/>
                        <Array as="points">
                            <mxPoint x="200" y="204.66000000000008"/>
                        </Array>
                    </mxGeometry>
                </mxCell>
                <mxCell id="qopmfsza2XrJsMXSQic5-103" value="" style="endArrow=none;html=1;" parent="1" edge="1">
                    <mxGeometry width="50" height="50" relative="1" as="geometry">
                        <mxPoint x="355" y="684.1000000000001" as="sourcePoint"/>
                        <mxPoint x="380" y="683.76" as="targetPoint"/>
                        <Array as="points">
                            <mxPoint x="380" y="683.7600000000001"/>
                        </Array>
                    </mxGeometry>
                </mxCell>
                <mxCell id="qopmfsza2XrJsMXSQic5-104" value="" style="endArrow=none;html=1;" parent="1" edge="1">
                    <mxGeometry width="50" height="50" relative="1" as="geometry">
                        <mxPoint x="354" y="714.3400000000001" as="sourcePoint"/>
                        <mxPoint x="379" y="714" as="targetPoint"/>
                        <Array as="points">
                            <mxPoint x="379" y="714.0000000000001"/>
                        </Array>
                    </mxGeometry>
                </mxCell>
                <mxCell id="qopmfsza2XrJsMXSQic5-105" value="" style="endArrow=none;html=1;" parent="1" edge="1">
                    <mxGeometry width="50" height="50" relative="1" as="geometry">
                        <mxPoint x="354" y="774.3400000000001" as="sourcePoint"/>
                        <mxPoint x="379" y="774" as="targetPoint"/>
                        <Array as="points">
                            <mxPoint x="379" y="774.0000000000001"/>
                        </Array>
                    </mxGeometry>
                </mxCell>
                <mxCell id="qopmfsza2XrJsMXSQic5-106" value="" style="endArrow=none;html=1;" parent="1" edge="1">
                    <mxGeometry width="50" height="50" relative="1" as="geometry">
                        <mxPoint x="354" y="744.3400000000001" as="sourcePoint"/>
                        <mxPoint x="379" y="744" as="targetPoint"/>
                        <Array as="points">
                            <mxPoint x="379" y="744.0000000000001"/>
                        </Array>
                    </mxGeometry>
                </mxCell>
                <mxCell id="qopmfsza2XrJsMXSQic5-107" value="" style="endArrow=none;html=1;" parent="1" edge="1">
                    <mxGeometry width="50" height="50" relative="1" as="geometry">
                        <mxPoint x="354" y="474.0000000000001" as="sourcePoint"/>
                        <mxPoint x="379" y="473.65999999999997" as="targetPoint"/>
                        <Array as="points">
                            <mxPoint x="379" y="473.6600000000001"/>
                        </Array>
                    </mxGeometry>
                </mxCell>
                <mxCell id="qopmfsza2XrJsMXSQic5-108" value="" style="endArrow=none;html=1;" parent="1" edge="1">
                    <mxGeometry width="50" height="50" relative="1" as="geometry">
                        <mxPoint x="354" y="534.5000000000001" as="sourcePoint"/>
                        <mxPoint x="379" y="534.16" as="targetPoint"/>
                        <Array as="points">
                            <mxPoint x="379" y="534.1600000000001"/>
                        </Array>
                    </mxGeometry>
                </mxCell>
                <mxCell id="qopmfsza2XrJsMXSQic5-109" value="" style="endArrow=none;html=1;" parent="1" edge="1">
                    <mxGeometry width="50" height="50" relative="1" as="geometry">
                        <mxPoint x="354" y="594.0000000000001" as="sourcePoint"/>
                        <mxPoint x="379" y="593.66" as="targetPoint"/>
                        <Array as="points">
                            <mxPoint x="379" y="593.6600000000001"/>
                        </Array>
                    </mxGeometry>
                </mxCell>
                <mxCell id="qopmfsza2XrJsMXSQic5-110" value="" style="endArrow=none;html=1;" parent="1" edge="1">
                    <mxGeometry width="50" height="50" relative="1" as="geometry">
                        <mxPoint x="490.5" y="495.0000000000001" as="sourcePoint"/>
                        <mxPoint x="515.5" y="494.65999999999997" as="targetPoint"/>
                        <Array as="points">
                            <mxPoint x="515.5" y="494.6600000000001"/>
                        </Array>
                    </mxGeometry>
                </mxCell>
                <mxCell id="qopmfsza2XrJsMXSQic5-111" value="" style="endArrow=none;html=1;" parent="1" edge="1">
                    <mxGeometry width="50" height="50" relative="1" as="geometry">
                        <mxPoint x="355" y="564.0000000000001" as="sourcePoint"/>
                        <mxPoint x="380" y="563.66" as="targetPoint"/>
                        <Array as="points">
                            <mxPoint x="380" y="563.6600000000001"/>
                        </Array>
                    </mxGeometry>
                </mxCell>
                <mxCell id="qopmfsza2XrJsMXSQic5-112" value="" style="endArrow=none;html=1;" parent="1" edge="1">
                    <mxGeometry width="50" height="50" relative="1" as="geometry">
                        <mxPoint x="354" y="504.0000000000001" as="sourcePoint"/>
                        <mxPoint x="379" y="503.65999999999997" as="targetPoint"/>
                        <Array as="points">
                            <mxPoint x="379" y="503.6600000000001"/>
                        </Array>
                    </mxGeometry>
                </mxCell>
                <mxCell id="qopmfsza2XrJsMXSQic5-113" value="" style="endArrow=none;html=1;" parent="1" edge="1">
                    <mxGeometry width="50" height="50" relative="1" as="geometry">
                        <mxPoint x="490" y="435.0000000000001" as="sourcePoint"/>
                        <mxPoint x="515" y="434.65999999999997" as="targetPoint"/>
                        <Array as="points">
                            <mxPoint x="515" y="434.6600000000001"/>
                        </Array>
                    </mxGeometry>
                </mxCell>
                <mxCell id="qopmfsza2XrJsMXSQic5-115" value="" style="endArrow=none;html=1;" parent="1" edge="1">
                    <mxGeometry width="50" height="50" relative="1" as="geometry">
                        <mxPoint x="490" y="465.0000000000002" as="sourcePoint"/>
                        <mxPoint x="515" y="464.6600000000001" as="targetPoint"/>
                        <Array as="points">
                            <mxPoint x="515" y="464.6600000000001"/>
                        </Array>
                    </mxGeometry>
                </mxCell>
                <mxCell id="qopmfsza2XrJsMXSQic5-116" value="" style="endArrow=none;html=1;" parent="1" edge="1">
                    <mxGeometry width="50" height="50" relative="1" as="geometry">
                        <mxPoint x="490.5" y="525.0000000000001" as="sourcePoint"/>
                        <mxPoint x="515.5" y="524.66" as="targetPoint"/>
                        <Array as="points">
                            <mxPoint x="515.5" y="524.6600000000001"/>
                        </Array>
                    </mxGeometry>
                </mxCell>
                <mxCell id="qopmfsza2XrJsMXSQic5-117" value="" style="endArrow=none;html=1;" parent="1" edge="1">
                    <mxGeometry width="50" height="50" relative="1" as="geometry">
                        <mxPoint x="490" y="754.3400000000001" as="sourcePoint"/>
                        <mxPoint x="515" y="754" as="targetPoint"/>
                        <Array as="points">
                            <mxPoint x="515" y="754.0000000000001"/>
                        </Array>
                    </mxGeometry>
                </mxCell>
                <mxCell id="qopmfsza2XrJsMXSQic5-118" value="" style="endArrow=none;html=1;" parent="1" edge="1">
                    <mxGeometry width="50" height="50" relative="1" as="geometry">
                        <mxPoint x="490" y="784.3400000000001" as="sourcePoint"/>
                        <mxPoint x="515" y="784" as="targetPoint"/>
                        <Array as="points">
                            <mxPoint x="515" y="784.0000000000001"/>
                        </Array>
                    </mxGeometry>
                </mxCell>
                <mxCell id="qopmfsza2XrJsMXSQic5-119" value="" style="endArrow=classicThin;dashed=1;html=1;dashPattern=1 3;strokeWidth=2;exitX=1;exitY=0.5;exitDx=0;exitDy=0;entryX=0;entryY=0.25;entryDx=0;entryDy=0;startArrow=none;startFill=0;endFill=1;fillColor=#ffff88;strokeColor=#FF3399;" parent="1" source="qopmfsza2XrJsMXSQic5-10" target="qopmfsza2XrJsMXSQic5-33" edge="1">
                    <mxGeometry width="50" height="50" relative="1" as="geometry">
                        <mxPoint x="340" y="334" as="sourcePoint"/>
                        <mxPoint x="390" y="284" as="targetPoint"/>
                    </mxGeometry>
                </mxCell>
                <mxCell id="qopmfsza2XrJsMXSQic5-120" value="" style="endArrow=classicThin;dashed=1;html=1;dashPattern=1 3;strokeWidth=2;exitX=1;exitY=0.75;exitDx=0;exitDy=0;endFill=1;strokeColor=#FF3399;" parent="1" source="qopmfsza2XrJsMXSQic5-12" edge="1">
                    <mxGeometry width="50" height="50" relative="1" as="geometry">
                        <mxPoint x="280" y="434" as="sourcePoint"/>
                        <mxPoint x="380" y="504" as="targetPoint"/>
                    </mxGeometry>
                </mxCell>
                <mxCell id="qopmfsza2XrJsMXSQic5-121" value="" style="endArrow=classicThin;dashed=1;html=1;dashPattern=1 3;strokeWidth=2;entryX=1;entryY=1;entryDx=0;entryDy=0;exitX=0;exitY=0;exitDx=0;exitDy=0;startArrow=none;startFill=0;endFill=1;strokeColor=#FF3399;" parent="1" source="qopmfsza2XrJsMXSQic5-42" target="qopmfsza2XrJsMXSQic5-22" edge="1">
                    <mxGeometry width="50" height="50" relative="1" as="geometry">
                        <mxPoint x="270" y="814" as="sourcePoint"/>
                        <mxPoint x="320" y="764" as="targetPoint"/>
                    </mxGeometry>
                </mxCell>
                <mxCell id="qopmfsza2XrJsMXSQic5-124" value="链接" style="text;html=1;align=center;verticalAlign=middle;resizable=0;points=[];autosize=1;" parent="1" vertex="1">
                    <mxGeometry x="270" y="654" width="40" height="20" as="geometry"/>
                </mxCell>
                <mxCell id="qopmfsza2XrJsMXSQic5-127" value="FHS(Filesystem Hierarchy Standard)" style="text;html=1;align=center;verticalAlign=middle;resizable=0;points=[];autosize=1;" parent="1" vertex="1">
                    <mxGeometry x="170" y="130" width="220" height="20" as="geometry"/>
                </mxCell>
                <mxCell id="qopmfsza2XrJsMXSQic5-156" value="链接" style="text;html=1;align=center;verticalAlign=middle;resizable=0;points=[];autosize=1;" parent="1" vertex="1">
                    <mxGeometry x="320" y="345" width="40" height="20" as="geometry"/>
                </mxCell>
                <mxCell id="qopmfsza2XrJsMXSQic5-157" value="链接" style="text;html=1;align=center;verticalAlign=middle;resizable=0;points=[];autosize=1;" parent="1" vertex="1">
                    <mxGeometry x="300" y="385" width="40" height="20" as="geometry"/>
                </mxCell>
            </root>
        </mxGraphModel>
    </diagram>
</mxfile>